PathFileType	4	(X/Y/Z)	D:\Research_projects\MuscleProsody\BulkSports2Dtrack\RetrackedSports2D\p1_sample60_cam3\p1_sample60_cam3_Sports2D\p1_sample60_cam3_Sports2D_px_person00.trc
DataRate	CameraRate	NumFrames	NumMarkers	Units	OrigDataRate	OrigDataStartFrame	OrigNumFrames
60	60	12	22	m	60	195	780
Frame#	Time	Hip			RHip			RKnee			RAnkle			RBigToe			RSmallToe			RHeel			LHip			LKnee			LAnkle			LBigToe			LSmallToe			LHeel			Neck			Head			Nose			RShoulder			RElbow			RWrist			LShoulder			LElbow			LWrist		
		X1	Y1	Z1	X2	Y2	Z2	X3	Y3	Z3	X4	Y4	Z4	X5	Y5	Z5	X6	Y6	Z6	X7	Y7	Z7	X8	Y8	Z8	X9	Y9	Z9	X10	Y10	Z10	X11	Y11	Z11	X12	Y12	Z12	X13	Y13	Z13	X14	Y14	Z14	X15	Y15	Z15	X16	Y16	Z16	X17	Y17	Z17	X18	Y18	Z18	X19	Y19	Z19	X20	Y20	Z20	X21	Y21	Z21	X22	Y22	Z22
195	3.25	227.6503924172527	488.7139823434229	0.0	201.09918506846356	489.3417722978269	0.0	201.0369003605139	619.5268622979497	0.0	209.00195015085043	738.415300391664	0.0	181.1934895920535	786.3986584011508	0.0	176.31555660819737	773.9971917246386	0.0	225.0668817882942	751.2842803135923	0.0	254.59098965207704	487.93166844159106	0.0	250.1863371665623	621.9265433272676	0.0	256.6661363108917	754.5186251797968	0.0	229.39476289800788	799.2455221044429	0.0	247.82638266100935	801.9969071793493	0.0	264.741643860122	765.8971421760594	0.0	217.54494536599194	304.8000064310613	0.0	180.19012852586306	225.9656012110018	0.0	173.92888144913357	275.4293375063658	0.0	176.2142392649462	320.56507974070905	0.0	109.27168532990072	287.10813601785804	0.0	104.49285463963567	199.29937519776473	0.0	261.83075635285843	311.3113523558441	0.0	297.2844446388775	251.91994804801357	0.0	259.7515917809185	155.1884169429984	0.0
196	3.2666666666666666	227.69537143383465	484.21697741718805	0.0	201.2896609781221	484.89778004189805	0.0	201.7373455185807	615.3643342872178	0.0	208.61725158169523	735.1090311759829	0.0	180.56215475846986	783.9450622011773	0.0	175.73960560286585	771.43045260481	0.0	225.02774880436553	747.9968949575267	0.0	254.5536807201222	483.45458753099973	0.0	251.38071529519277	618.2204416325748	0.0	256.7231501224592	751.9263683451821	0.0	229.53905315446895	796.4828133004484	0.0	248.08936050794722	799.3682661562589	0.0	264.53493520603774	763.1898345048122	0.0	217.79444082261077	300.5445286424078	0.0	180.0268320298151	221.68757624745916	0.0	173.92981613431678	271.2229562510659	0.0	176.54814673392517	316.44238121190256	0.0	109.58577742038074	282.27491861594183	0.0	105.65713685670539	194.0636805019302	0.0	261.8033999954698	306.958419185144	0.0	296.34024689308484	246.8574673028099	0.0	257.8551131477369	150.2620211543206	0.0
197	3.283333333333333	227.78955374164167	481.27493235830764	0.0	201.47647255811526	481.97553911992514	0.0	202.18966741451044	612.5961310794986	0.0	208.27138946962782	732.8558148002289	0.0	180.02753274718927	782.2321667222847	0.0	175.2717296856405	769.6185541909706	0.0	224.96781978350867	745.7091237320941	0.0	254.59839963825354	480.53934365065913	0.0	252.21902246032118	615.9074200170525	0.0	256.72440485820175	750.4168373793611	0.0	229.52340951553919	794.6386414285427	0.0	248.20968544364572	797.6162926952613	0.0	264.3238557879222	761.4975255994226	0.0	217.99394877783203	297.81869235436045	0.0	179.707347991724	219.00426772121804	0.0	173.83510773665685	268.6472322673957	0.0	176.84132111690084	313.8695871277142	0.0	109.72762234048504	279.5973485016866	0.0	106.77204364233934	191.15355134939563	0.0	261.81584704907465	304.22741415969085	0.0	295.54802075502147	244.45806895792055	0.0	255.88250764489095	148.18197858434576	0.0
198	3.3	227.9310053141114	479.9483366875165	0.0	201.6423553043128	480.6200395349971	0.0	202.42021668331748	611.2892788293225	0.0	207.95281980897548	731.7820802779974	0.0	179.58867381550988	781.38831383658	0.0	174.90549108294027	768.6985484305736	0.0	224.863966974734	744.5571627552633	0.0	254.7302302002149	479.2272687135467	0.0	252.73601948815633	615.0496936765352	0.0	256.65224382775983	750.0966004224089	0.0	229.33884034407743	793.8692148851172	0.0	248.1736288852023	796.8929110100822	0.0	264.0917346580147	760.9385563868368	0.0	218.15534447856575	296.66269347591583	0.0	179.25437308829794	217.97618049611586	0.0	173.671051729627	267.7358663280397	0.0	177.10720172796107	312.85935686208563	0.0	109.68011495170667	278.9999408091479	0.0	107.78415280917548	190.4285082556191	0.0	261.858355635779	303.1694545970605	0.0	294.8800282568102	244.67279098569185	0.0	253.84112713306533	148.83346118244862	0.0
199	3.3166666666666664	228.12021976920104	480.247990111292	0.0	201.78257416409602	480.8335478718926	0.0	202.45201553475383	611.4510042295979	0.0	207.6660977761065	731.9452491935541	0.0	179.2539514332548	781.4746855251918	0.0	174.64121515657106	768.7390095794295	0.0	224.7078913011945	744.6109233225382	0.0	254.95452228903343	479.5125075794607	0.0	252.96434291634392	615.631166872831	0.0	256.50137671147394	750.9880983704968	0.0	228.98149794091822	794.2446522077018	0.0	247.96569502374325	797.2696250043198	0.0	263.8332137007624	761.5480342533621	0.0	218.27981731461094	297.09168537127914	0.0	178.67962497388575	218.6268052690031	0.0	173.44876737270178	268.491465875644	0.0	177.3541224455739	313.4002819788659	0.0	109.4419358616572	280.3989683173739	0.0	108.64147682560771	191.7697345816443	0.0	261.9184011996434	303.79659938676025	0.0	294.31406903074156	247.4417427957355	0.0	251.7524451926136	152.10701795724862	0.0
200	3.3333333333333335	228.35765850327988	482.13853600255874	0.0	201.89987454858272	482.5814036970977	0.0	202.30433082284674	613.0360219183601	0.0	207.4295579047319	733.3362408951613	0.0	179.04432598971127	782.4801588980755	0.0	174.48818248799802	769.7337663168676	0.0	224.50362676078853	745.8761289690902	0.0	255.27032534582935	481.3494244445811	0.0	252.92643987307216	617.569090213004	0.0	256.2790735199434	753.0323834209424	0.0	228.46359105892415	795.7465056278662	0.0	247.58323527437753	798.7299392610204	0.0	263.55701158082576	763.2795479201852	0.0	218.35856890325024	299.0898967699458	0.0	177.98665153426947	220.93866125599035	0.0	173.17042555445354	270.89015376117925	0.0	177.5837195644308	315.4568147995271	0.0	109.02717042497369	283.70832147169887	0.0	109.29845113865588	195.09223088829236	0.0	261.9814688576765	306.0786399791488	0.0	293.8354676908352	252.70010338014094	0.0	249.6469555762576	157.90779606390257	0.0
201	3.35	228.64205407545853	485.5370132101153	0.0	202.00218129451858	485.7912191877917	0.0	201.99483539683672	615.9506929518418	0.0	207.27031521156474	735.8788507227348	0.0	178.99012558652188	784.3283101376031	0.0	174.46533834739353	771.6038895437069	0.0	224.2664517744903	748.2870656427319	0.0	255.66793299382377	484.653329892945	0.0	252.63351532347863	620.7274870925684	0.0	256.00387338526474	756.0966709492886	0.0	227.81099992631673	798.2683670297256	0.0	247.0360764824422	801.1744159217492	0.0	263.2834835366767	766.0133118787661	0.0	218.3731844924986	302.60406617279364	0.0	177.17968619005734	224.8449646573128	0.0	172.8324638982841	274.86930890029254	0.0	177.78945721578137	318.9673118038949	0.0	108.46778334941787	288.84119794310726	0.0	109.71774352696704	200.3382336565195	0.0	262.02826135846146	309.9435867878096	0.0	293.4374630413996	260.36887373202234	0.0	247.55933106947327	166.15213103564088	0.0
202	3.3666666666666667	228.97139975883428	490.30973988651687	0.0	202.1026949362125	490.3486768045039	0.0	201.54234036855877	620.0532492847306	0.0	207.21885910994928	739.4289258199138	0.0	179.12239371148038	786.883733276125	0.0	174.598121534296	774.2028353748588	0.0	224.021478732045	751.7036622921139	0.0	256.1323142129047	489.2959785547724	0.0	252.09054961235492	624.9298950385314	0.0	255.7034753123278	759.9883720015783	0.0	227.05750153226649	801.6210567567921	0.0	246.34204381815593	804.4299352213519	0.0	263.0408763182475	769.5720186432557	0.0	218.29632477916715	307.53690056762235	0.0	176.26934715768385	230.21987397431167	0.0	172.4256458987616	280.31256763106734	0.0	177.9581383548866	323.8392553354184	0.0	107.81526362408839	295.7065304247751	0.0	109.8693292505919	207.46328844976188	0.0	262.03530978829707	315.2747336946321	0.0	293.120453235293	270.34130547148686	0.0	245.52415756023973	176.75580866564903	0.0
203	3.3833333333333333	229.34577438039634	496.27497088902095	0.0	202.21858048768638	496.097118660169	0.0	200.9663863297832	625.1555862721874	0.0	207.30343948544896	743.7764359328495	0.0	179.46301584309333	789.9552887034259	0.0	174.9107407147742	777.3257302899875	0.0	223.80152172101754	755.9189462213144	0.0	256.6487995016113	495.10466012695855	0.0	251.3020008327514	629.971934982112	0.0	255.41170119307108	764.4718525761609	0.0	226.24664023968276	805.5498745400236	0.0	245.53207822202734	808.2597609748971	0.0	262.8639152076503	773.7357700619326	0.0	218.09604440064507	313.7403028094989	0.0	175.27016491730703	236.87417663544244	0.0	171.9378652172134	287.04883234799826	0.0	178.07581916473626	329.9446807060435	0.0	107.13868029912729	304.201521509873	0.0	109.72835695684792	216.430255997224	0.0	261.98024446064557	321.9041819024298	0.0	292.88993805961127	282.4772840659259	0.0	243.56959962281522	189.6288151360593	0.0
204	3.4	229.76863240514706	503.2086535611947	0.0	202.36887060108054	502.8378736950498	0.0	200.28572370363068	631.0286183536472	0.0	207.54401960596962	748.6513932096178	0.0	180.01394586362653	793.3109166328218	0.0	175.41543483956613	780.7295279427614	0.0	223.6434082074342	760.6657079581701	0.0	257.20673543156363	501.8631281855194	0.0	250.27664510416986	635.6311653915291	0.0	255.1645662282604	769.2827963970149	0.0	225.43226672154233	809.7637948666301	0.0	244.65511861834403	812.3849248934497	0.0	262.79081312437427	778.2511296987936	0.0	217.74277803340098	321.01010856347756	0.0	174.19567683544108	244.55775817047285	0.0	171.35780253181792	294.85390715469816	0.0	178.13321132509017	337.1161453401528	0.0	106.5215155169384	314.2038525839664	0.0	109.27504837591003	227.2053410485625	0.0	261.8478431100886	329.6104403539261	0.0	292.75352955949853	296.59607927415885	0.0	241.7114812417084	204.67451825162334	0.0
205	3.4166666666666665	230.24586021330126	510.8444283013799	0.0	202.5743515516121	510.32610955295195	0.0	199.51986780136346	637.4083661491014	0.0	207.947185891896	753.7403669215918	0.0	180.7469118699143	796.7104666809894	0.0	176.10190428717655	784.1653159268672	0.0	223.57942230045404	765.6289045500922	0.0	257.80083859278255	509.3103738734177	0.0	249.03221688216465	641.668701517521	0.0	254.994553304252	774.1410386340822	0.0	224.66893205842823	813.9668031496951	0.0	243.77075104344127	816.5194555481764	0.0	262.8542195662657	782.8422155328703	0.0	217.21615739809414	329.085297346255	0.0	173.05613616786604	252.96540899969855	0.0	170.67189025422948	303.44411439135365	0.0	178.12749951575486	345.13988753029986	0.0	106.06045575372869	325.56509032146806	0.0	108.49998401928838	239.74632097883546	0.0	261.63723086749224	338.1212304172105	0.0	292.7174457610422	312.4555608931904	0.0	239.95218662452646	221.77928913674384	0.0
206	3.433333333333333	230.78503723492443	518.8751314284373	0.0	202.85905163855537	518.2722362092734	0.0	198.69234038786325	644.0085226545852	0.0	208.50250168257878	758.7217322190038	0.0	181.60240880466182	799.9451273279246	0.0	176.93150361462017	787.4164009391118	0.0	223.6265480473781	770.481112318179	0.0	258.4315555897618	517.1459863454421	0.0	247.6009332640844	647.8317792289843	0.0	254.92242765118965	778.7721429299177	0.0	223.9982974955313	817.895095280284	0.0	242.9356968139749	820.4106348913822	0.0	263.0698306941897	787.235267537533	0.0	216.50998029588501	337.6582264421952	0.0	171.85851820255263	261.7501105810969	0.0	169.85932357620834	312.4823118081387	0.0	178.06253515208547	353.75548746498475	0.0	105.8652577949366	338.1088764604528	0.0	107.41101523229813	253.9977090255948	0.0	261.3682657487291	347.1254243445327	0.0	292.78437909874316	329.7422283389427	0.0	238.28475462026637	240.8100597129856	0.0
